%TF.GenerationSoftware,KiCad,Pcbnew,(6.0.1)*%
%TF.CreationDate,2022-07-20T21:14:50+08:00*%
%TF.ProjectId,USB2UART,55534232-5541-4525-942e-6b696361645f,rev?*%
%TF.SameCoordinates,Original*%
%TF.FileFunction,Legend,Bot*%
%TF.FilePolarity,Positive*%
%FSLAX46Y46*%
G04 Gerber Fmt 4.6, Leading zero omitted, Abs format (unit mm)*
G04 Created by KiCad (PCBNEW (6.0.1)) date 2022-07-20 21:14:50*
%MOMM*%
%LPD*%
G01*
G04 APERTURE LIST*
%ADD10C,0.150000*%
G04 APERTURE END LIST*
D10*
X110343703Y-69019942D02*
X110647275Y-71448514D01*
X110540132Y-71734228D01*
X110415132Y-71877085D01*
X110147275Y-72019942D01*
X109575846Y-72019942D01*
X109272275Y-71877085D01*
X109111560Y-71734228D01*
X108932989Y-71448514D01*
X108629417Y-69019942D01*
X107700846Y-71877085D02*
X107290132Y-72019942D01*
X106575846Y-72019942D01*
X106272275Y-71877085D01*
X106111560Y-71734228D01*
X105932989Y-71448514D01*
X105897275Y-71162800D01*
X106004417Y-70877085D01*
X106129417Y-70734228D01*
X106397275Y-70591371D01*
X106950846Y-70448514D01*
X107218703Y-70305657D01*
X107343703Y-70162800D01*
X107450846Y-69877085D01*
X107415132Y-69591371D01*
X107236560Y-69305657D01*
X107075846Y-69162800D01*
X106772275Y-69019942D01*
X106057989Y-69019942D01*
X105647275Y-69162800D01*
X103522275Y-70448514D02*
X103111560Y-70591371D01*
X102986560Y-70734228D01*
X102879417Y-71019942D01*
X102932989Y-71448514D01*
X103111560Y-71734228D01*
X103272275Y-71877085D01*
X103575846Y-72019942D01*
X104718703Y-72019942D01*
X104343703Y-69019942D01*
X103343703Y-69019942D01*
X103075846Y-69162800D01*
X102950846Y-69305657D01*
X102843703Y-69591371D01*
X102879417Y-69877085D01*
X103057989Y-70162800D01*
X103218703Y-70305657D01*
X103522275Y-70448514D01*
X104522275Y-70448514D01*
X101522275Y-69305657D02*
X101361560Y-69162800D01*
X101057989Y-69019942D01*
X100343703Y-69019942D01*
X100075846Y-69162800D01*
X99950846Y-69305657D01*
X99843703Y-69591371D01*
X99879417Y-69877085D01*
X100075846Y-70305657D01*
X102004417Y-72019942D01*
X100147275Y-72019942D01*
X98486560Y-69019942D02*
X98790132Y-71448514D01*
X98682989Y-71734228D01*
X98557989Y-71877085D01*
X98290132Y-72019942D01*
X97718703Y-72019942D01*
X97415132Y-71877085D01*
X97254417Y-71734228D01*
X97075846Y-71448514D01*
X96772275Y-69019942D01*
X95754417Y-71162800D02*
X94325846Y-71162800D01*
X96147275Y-72019942D02*
X94772275Y-69019942D01*
X94147275Y-72019942D01*
X91432989Y-72019942D02*
X92254417Y-70591371D01*
X93147275Y-72019942D02*
X92772275Y-69019942D01*
X91629417Y-69019942D01*
X91361560Y-69162800D01*
X91236560Y-69305657D01*
X91129417Y-69591371D01*
X91182989Y-70019942D01*
X91361560Y-70305657D01*
X91522275Y-70448514D01*
X91825846Y-70591371D01*
X92968703Y-70591371D01*
X90200846Y-69019942D02*
X88486560Y-69019942D01*
X89718703Y-72019942D02*
X89343703Y-69019942D01*
M02*
