%TF.GenerationSoftware,KiCad,Pcbnew,(6.0.1)*%
%TF.CreationDate,2022-07-20T21:14:50+08:00*%
%TF.ProjectId,USB2UART,55534232-5541-4525-942e-6b696361645f,rev?*%
%TF.SameCoordinates,Original*%
%TF.FileFunction,Soldermask,Top*%
%TF.FilePolarity,Negative*%
%FSLAX46Y46*%
G04 Gerber Fmt 4.6, Leading zero omitted, Abs format (unit mm)*
G04 Created by KiCad (PCBNEW (6.0.1)) date 2022-07-20 21:14:50*
%MOMM*%
%LPD*%
G01*
G04 APERTURE LIST*
G04 Aperture macros list*
%AMRoundRect*
0 Rectangle with rounded corners*
0 $1 Rounding radius*
0 $2 $3 $4 $5 $6 $7 $8 $9 X,Y pos of 4 corners*
0 Add a 4 corners polygon primitive as box body*
4,1,4,$2,$3,$4,$5,$6,$7,$8,$9,$2,$3,0*
0 Add four circle primitives for the rounded corners*
1,1,$1+$1,$2,$3*
1,1,$1+$1,$4,$5*
1,1,$1+$1,$6,$7*
1,1,$1+$1,$8,$9*
0 Add four rect primitives between the rounded corners*
20,1,$1+$1,$2,$3,$4,$5,0*
20,1,$1+$1,$4,$5,$6,$7,0*
20,1,$1+$1,$6,$7,$8,$9,0*
20,1,$1+$1,$8,$9,$2,$3,0*%
G04 Aperture macros list end*
%ADD10RoundRect,0.225000X0.250000X-0.225000X0.250000X0.225000X-0.250000X0.225000X-0.250000X-0.225000X0*%
%ADD11RoundRect,0.075000X-0.425000X-0.075000X0.425000X-0.075000X0.425000X0.075000X-0.425000X0.075000X0*%
%ADD12RoundRect,0.150000X-0.700000X0.150000X-0.700000X-0.150000X0.700000X-0.150000X0.700000X0.150000X0*%
%ADD13RoundRect,0.250000X-1.100000X0.250000X-1.100000X-0.250000X1.100000X-0.250000X1.100000X0.250000X0*%
%ADD14RoundRect,0.225000X-0.250000X0.225000X-0.250000X-0.225000X0.250000X-0.225000X0.250000X0.225000X0*%
%ADD15RoundRect,0.150000X-0.587500X-0.150000X0.587500X-0.150000X0.587500X0.150000X-0.587500X0.150000X0*%
%ADD16RoundRect,0.150000X0.150000X0.700000X-0.150000X0.700000X-0.150000X-0.700000X0.150000X-0.700000X0*%
%ADD17RoundRect,0.250000X0.250000X1.100000X-0.250000X1.100000X-0.250000X-1.100000X0.250000X-1.100000X0*%
%ADD18R,0.650000X1.560000*%
%ADD19RoundRect,0.225000X0.225000X0.250000X-0.225000X0.250000X-0.225000X-0.250000X0.225000X-0.250000X0*%
%ADD20R,0.450000X0.600000*%
%ADD21RoundRect,0.150000X-0.150000X-0.700000X0.150000X-0.700000X0.150000X0.700000X-0.150000X0.700000X0*%
%ADD22RoundRect,0.250000X-0.250000X-1.100000X0.250000X-1.100000X0.250000X1.100000X-0.250000X1.100000X0*%
%ADD23R,0.300000X1.400000*%
%ADD24RoundRect,0.200000X-0.200000X-0.275000X0.200000X-0.275000X0.200000X0.275000X-0.200000X0.275000X0*%
%ADD25R,1.400000X0.300000*%
%ADD26RoundRect,0.225000X-0.225000X-0.250000X0.225000X-0.250000X0.225000X0.250000X-0.225000X0.250000X0*%
%ADD27RoundRect,0.218750X-0.218750X-0.256250X0.218750X-0.256250X0.218750X0.256250X-0.218750X0.256250X0*%
%ADD28R,1.200000X1.400000*%
%ADD29RoundRect,0.200000X0.200000X0.275000X-0.200000X0.275000X-0.200000X-0.275000X0.200000X-0.275000X0*%
G04 APERTURE END LIST*
D10*
%TO.C,C9*%
X86715600Y-66662600D03*
X86715600Y-65112600D03*
%TD*%
D11*
%TO.C,U6*%
X101628800Y-72363800D03*
X101628800Y-72893800D03*
X101628800Y-73423800D03*
X101628800Y-73953800D03*
X101628800Y-74483800D03*
X101628800Y-75013800D03*
X101628800Y-75543800D03*
X101628800Y-76073800D03*
X105228800Y-76073800D03*
X105228800Y-75543800D03*
X105228800Y-75013800D03*
X105228800Y-74483800D03*
X105228800Y-73953800D03*
X105228800Y-73423800D03*
X105228800Y-72893800D03*
X105228800Y-72363800D03*
%TD*%
D12*
%TO.C,J1*%
X90800800Y-72851800D03*
X90800800Y-74101800D03*
X90800800Y-75351800D03*
X90800800Y-76601800D03*
D13*
X87600800Y-78451800D03*
X87600800Y-71001800D03*
%TD*%
D14*
%TO.C,C21*%
X108051600Y-78777800D03*
X108051600Y-80327800D03*
%TD*%
D15*
%TO.C,Q1*%
X96598500Y-81346000D03*
X96598500Y-83246000D03*
X98473500Y-82296000D03*
%TD*%
D16*
%TO.C,J4*%
X117556600Y-61709600D03*
X116306600Y-61709600D03*
X115056600Y-61709600D03*
X113806600Y-61709600D03*
D17*
X111956600Y-58509600D03*
X119406600Y-58509600D03*
%TD*%
D18*
%TO.C,U3*%
X91455200Y-66526400D03*
X92405200Y-66526400D03*
X93355200Y-66526400D03*
X93355200Y-63826400D03*
X91455200Y-63826400D03*
%TD*%
D10*
%TO.C,C26*%
X89052400Y-66662600D03*
X89052400Y-65112600D03*
%TD*%
D19*
%TO.C,C25*%
X110476600Y-83079600D03*
X108926600Y-83079600D03*
%TD*%
D10*
%TO.C,C22*%
X108051600Y-77025800D03*
X108051600Y-75475800D03*
%TD*%
D19*
%TO.C,C27*%
X113766600Y-83089600D03*
X112216600Y-83089600D03*
%TD*%
D20*
%TO.C,D7*%
X98196400Y-77656400D03*
X98196400Y-75556400D03*
%TD*%
D19*
%TO.C,C10*%
X120106600Y-72919600D03*
X118556600Y-72919600D03*
%TD*%
D21*
%TO.C,J5*%
X113806600Y-85799600D03*
X115056600Y-85799600D03*
X116306600Y-85799600D03*
X117556600Y-85799600D03*
D22*
X111956600Y-88999600D03*
X119406600Y-88999600D03*
%TD*%
D20*
%TO.C,D5*%
X95758000Y-70832000D03*
X95758000Y-72932000D03*
%TD*%
D23*
%TO.C,U2*%
X117711600Y-76419600D03*
X117211600Y-76419600D03*
X116711600Y-76419600D03*
X116211600Y-76419600D03*
X115711600Y-76419600D03*
X115711600Y-80819600D03*
X116211600Y-80819600D03*
X116711600Y-80819600D03*
X117211600Y-80819600D03*
X117711600Y-80819600D03*
%TD*%
D24*
%TO.C,R11*%
X96558600Y-79552800D03*
X98208600Y-79552800D03*
%TD*%
D10*
%TO.C,C23*%
X95641600Y-68934600D03*
X95641600Y-67384600D03*
%TD*%
%TO.C,C24*%
X97751600Y-67419600D03*
X97751600Y-65869600D03*
%TD*%
D14*
%TO.C,C2*%
X120111600Y-77274600D03*
X120111600Y-78824600D03*
%TD*%
D25*
%TO.C,U7*%
X105374800Y-69681600D03*
X105374800Y-69181600D03*
X105374800Y-68681600D03*
X105374800Y-68181600D03*
X105374800Y-67681600D03*
X100974800Y-67681600D03*
X100974800Y-68181600D03*
X100974800Y-68681600D03*
X100974800Y-69181600D03*
X100974800Y-69681600D03*
%TD*%
D24*
%TO.C,R12*%
X100622600Y-83007200D03*
X102272600Y-83007200D03*
%TD*%
D16*
%TO.C,J3*%
X104374000Y-61692400D03*
X103124000Y-61692400D03*
X101874000Y-61692400D03*
D17*
X106224000Y-58492400D03*
X100024000Y-58492400D03*
%TD*%
D26*
%TO.C,C19*%
X108089400Y-68986400D03*
X109639400Y-68986400D03*
%TD*%
D20*
%TO.C,D6*%
X98196400Y-71848000D03*
X98196400Y-73948000D03*
%TD*%
D21*
%TO.C,J2*%
X101874000Y-85830800D03*
X103124000Y-85830800D03*
X104374000Y-85830800D03*
D22*
X100024000Y-89030800D03*
X106224000Y-89030800D03*
%TD*%
D27*
%TO.C,D8*%
X87392300Y-82488400D03*
X88967300Y-82488400D03*
%TD*%
D28*
%TO.C,Y1*%
X109995600Y-77487600D03*
X109995600Y-79687600D03*
X111695600Y-79687600D03*
X111695600Y-77487600D03*
%TD*%
D26*
%TO.C,C20*%
X108102400Y-70764400D03*
X109652400Y-70764400D03*
%TD*%
D25*
%TO.C,U1*%
X114681600Y-68859600D03*
X114681600Y-69359600D03*
X114681600Y-69859600D03*
X114681600Y-70359600D03*
X114681600Y-70859600D03*
X119081600Y-70859600D03*
X119081600Y-70359600D03*
X119081600Y-69859600D03*
X119081600Y-69359600D03*
X119081600Y-68859600D03*
%TD*%
%TO.C,U8*%
X101076400Y-79264000D03*
X101076400Y-79764000D03*
X101076400Y-80264000D03*
X101076400Y-80764000D03*
X101076400Y-81264000D03*
X105476400Y-81264000D03*
X105476400Y-80764000D03*
X105476400Y-80264000D03*
X105476400Y-79764000D03*
X105476400Y-79264000D03*
%TD*%
D10*
%TO.C,C1*%
X119081600Y-66779600D03*
X119081600Y-65229600D03*
%TD*%
D29*
%TO.C,R13*%
X92659200Y-82499200D03*
X91009200Y-82499200D03*
%TD*%
M02*
