M48
; DRILL file {KiCad (6.0.1)} date Wed Jul 20 21:14:51 2022
; FORMAT={-:-/ absolute / inch / decimal}
; #@! TF.CreationDate,2022-07-20T21:14:51+08:00
; #@! TF.GenerationSoftware,Kicad,Pcbnew,(6.0.1)
; #@! TF.FileFunction,Plated,1,2,PTH
FMAT,2
INCH
; #@! TA.AperFunction,Plated,PTH,ViaDrill
T1C0.0118
; #@! TA.AperFunction,Plated,PTH,ViaDrill
T2C0.0157
%
G90
G05
T1
X3.818Y-2.88
X3.92Y-3.126
X3.93Y-3.346
X3.934Y-2.578
X3.972Y-3.324
X3.99Y-3.05
X4.12Y-3.082
X4.124Y-3.258
X4.288Y-2.992
X4.3Y-3.19
X4.362Y-3.19
X4.368Y-2.992
X4.431Y-2.995
X4.431Y-3.189
X4.446Y-3.044
X4.446Y-3.09
X4.446Y-3.148
T2
X3.5288Y-2.4118
X3.6359Y-3.4031
X4.4792Y-3.2295
X4.5074Y-2.6293
X4.5882Y-2.6296
X4.6075Y-2.5446
X4.6183Y-2.5997
X4.6283Y-2.7504
X4.8024Y-2.524
X4.828Y-3.1724
T0
M30
