%TF.GenerationSoftware,KiCad,Pcbnew,(6.0.1)*%
%TF.CreationDate,2022-07-20T21:14:50+08:00*%
%TF.ProjectId,USB2UART,55534232-5541-4525-942e-6b696361645f,rev?*%
%TF.SameCoordinates,Original*%
%TF.FileFunction,Legend,Top*%
%TF.FilePolarity,Positive*%
%FSLAX46Y46*%
G04 Gerber Fmt 4.6, Leading zero omitted, Abs format (unit mm)*
G04 Created by KiCad (PCBNEW (6.0.1)) date 2022-07-20 21:14:50*
%MOMM*%
%LPD*%
G01*
G04 APERTURE LIST*
%ADD10C,0.150000*%
%ADD11C,0.120000*%
G04 APERTURE END LIST*
D10*
X111117142Y-71216780D02*
X110545714Y-71216780D01*
X110831428Y-71216780D02*
X110831428Y-70216780D01*
X110736190Y-70359638D01*
X110640952Y-70454876D01*
X110545714Y-70502495D01*
X111736190Y-70216780D02*
X111831428Y-70216780D01*
X111926666Y-70264400D01*
X111974285Y-70312019D01*
X112021904Y-70407257D01*
X112069523Y-70597733D01*
X112069523Y-70835828D01*
X112021904Y-71026304D01*
X111974285Y-71121542D01*
X111926666Y-71169161D01*
X111831428Y-71216780D01*
X111736190Y-71216780D01*
X111640952Y-71169161D01*
X111593333Y-71121542D01*
X111545714Y-71026304D01*
X111498095Y-70835828D01*
X111498095Y-70597733D01*
X111545714Y-70407257D01*
X111593333Y-70312019D01*
X111640952Y-70264400D01*
X111736190Y-70216780D01*
X112926666Y-70550114D02*
X112926666Y-71216780D01*
X112498095Y-70550114D02*
X112498095Y-71073923D01*
X112545714Y-71169161D01*
X112640952Y-71216780D01*
X112783809Y-71216780D01*
X112879047Y-71169161D01*
X112926666Y-71121542D01*
X111117142Y-69337180D02*
X110545714Y-69337180D01*
X110831428Y-69337180D02*
X110831428Y-68337180D01*
X110736190Y-68480038D01*
X110640952Y-68575276D01*
X110545714Y-68622895D01*
X111736190Y-68337180D02*
X111831428Y-68337180D01*
X111926666Y-68384800D01*
X111974285Y-68432419D01*
X112021904Y-68527657D01*
X112069523Y-68718133D01*
X112069523Y-68956228D01*
X112021904Y-69146704D01*
X111974285Y-69241942D01*
X111926666Y-69289561D01*
X111831428Y-69337180D01*
X111736190Y-69337180D01*
X111640952Y-69289561D01*
X111593333Y-69241942D01*
X111545714Y-69146704D01*
X111498095Y-68956228D01*
X111498095Y-68718133D01*
X111545714Y-68527657D01*
X111593333Y-68432419D01*
X111640952Y-68384800D01*
X111736190Y-68337180D01*
X112926666Y-68670514D02*
X112926666Y-69337180D01*
X112498095Y-68670514D02*
X112498095Y-69194323D01*
X112545714Y-69289561D01*
X112640952Y-69337180D01*
X112783809Y-69337180D01*
X112879047Y-69289561D01*
X112926666Y-69241942D01*
X94398266Y-89559600D02*
X94303028Y-89511980D01*
X94160171Y-89511980D01*
X94017314Y-89559600D01*
X93922076Y-89654838D01*
X93874457Y-89750076D01*
X93826838Y-89940552D01*
X93826838Y-90083409D01*
X93874457Y-90273885D01*
X93922076Y-90369123D01*
X94017314Y-90464361D01*
X94160171Y-90511980D01*
X94255409Y-90511980D01*
X94398266Y-90464361D01*
X94445885Y-90416742D01*
X94445885Y-90083409D01*
X94255409Y-90083409D01*
X96112552Y-89511980D02*
X95636361Y-89511980D01*
X95588742Y-89988171D01*
X95636361Y-89940552D01*
X95731600Y-89892933D01*
X95969695Y-89892933D01*
X96064933Y-89940552D01*
X96112552Y-89988171D01*
X96160171Y-90083409D01*
X96160171Y-90321504D01*
X96112552Y-90416742D01*
X96064933Y-90464361D01*
X95969695Y-90511980D01*
X95731600Y-90511980D01*
X95636361Y-90464361D01*
X95588742Y-90416742D01*
X97207790Y-89511980D02*
X97779219Y-89511980D01*
X97493504Y-90511980D02*
X97493504Y-89511980D01*
X98017314Y-89511980D02*
X98683980Y-90511980D01*
X98683980Y-89511980D02*
X98017314Y-90511980D01*
X86233047Y-68092628D02*
X86994952Y-68092628D01*
X86614000Y-68473580D02*
X86614000Y-67711676D01*
X95083428Y-77966914D02*
X95083428Y-78633580D01*
X94845333Y-77585961D02*
X94607238Y-78300247D01*
X95226285Y-78300247D01*
X95607238Y-78538342D02*
X95654857Y-78585961D01*
X95607238Y-78633580D01*
X95559619Y-78585961D01*
X95607238Y-78538342D01*
X95607238Y-78633580D01*
X95988190Y-77633580D02*
X96654857Y-77633580D01*
X96226285Y-78633580D01*
X97035809Y-78633580D02*
X97035809Y-77633580D01*
X97131047Y-78252628D02*
X97416761Y-78633580D01*
X97416761Y-77966914D02*
X97035809Y-78347866D01*
X98267314Y-56977219D02*
X98600647Y-57453409D01*
X98838742Y-56977219D02*
X98838742Y-57977219D01*
X98457790Y-57977219D01*
X98362552Y-57929600D01*
X98314933Y-57881980D01*
X98267314Y-57786742D01*
X98267314Y-57643885D01*
X98314933Y-57548647D01*
X98362552Y-57501028D01*
X98457790Y-57453409D01*
X98838742Y-57453409D01*
X97933980Y-57977219D02*
X97267314Y-56977219D01*
X97267314Y-57977219D02*
X97933980Y-56977219D01*
X96267314Y-57977219D02*
X95695885Y-57977219D01*
X95981600Y-56977219D02*
X95981600Y-57977219D01*
X95457790Y-57977219D02*
X94791123Y-56977219D01*
X94791123Y-57977219D02*
X95457790Y-56977219D01*
X93124457Y-57929600D02*
X93219695Y-57977219D01*
X93362552Y-57977219D01*
X93505409Y-57929600D01*
X93600647Y-57834361D01*
X93648266Y-57739123D01*
X93695885Y-57548647D01*
X93695885Y-57405790D01*
X93648266Y-57215314D01*
X93600647Y-57120076D01*
X93505409Y-57024838D01*
X93362552Y-56977219D01*
X93267314Y-56977219D01*
X93124457Y-57024838D01*
X93076838Y-57072457D01*
X93076838Y-57405790D01*
X93267314Y-57405790D01*
X124863028Y-59827219D02*
X124863028Y-59017695D01*
X124815409Y-58922457D01*
X124767790Y-58874838D01*
X124672552Y-58827219D01*
X124482076Y-58827219D01*
X124386838Y-58874838D01*
X124339219Y-58922457D01*
X124291600Y-59017695D01*
X124291600Y-59827219D01*
X123863028Y-59112933D02*
X123386838Y-59112933D01*
X123958266Y-58827219D02*
X123624933Y-59827219D01*
X123291600Y-58827219D01*
X122386838Y-58827219D02*
X122720171Y-59303409D01*
X122958266Y-58827219D02*
X122958266Y-59827219D01*
X122577314Y-59827219D01*
X122482076Y-59779600D01*
X122434457Y-59731980D01*
X122386838Y-59636742D01*
X122386838Y-59493885D01*
X122434457Y-59398647D01*
X122482076Y-59351028D01*
X122577314Y-59303409D01*
X122958266Y-59303409D01*
X122101123Y-59827219D02*
X121529695Y-59827219D01*
X121815409Y-58827219D02*
X121815409Y-59827219D01*
X120672552Y-58827219D02*
X121243980Y-58827219D01*
X120958266Y-58827219D02*
X120958266Y-59827219D01*
X121053504Y-59684361D01*
X121148742Y-59589123D01*
X121243980Y-59541504D01*
X91530514Y-84475580D02*
X90959085Y-84475580D01*
X91244800Y-84475580D02*
X91244800Y-83475580D01*
X91149561Y-83618438D01*
X91054323Y-83713676D01*
X90959085Y-83761295D01*
X91959085Y-84475580D02*
X91959085Y-83475580D01*
X92530514Y-84475580D02*
X92101942Y-83904152D01*
X92530514Y-83475580D02*
X91959085Y-84047009D01*
X127689695Y-58097219D02*
X128165885Y-58097219D01*
X128213504Y-57621028D01*
X128165885Y-57668647D01*
X128070647Y-57716266D01*
X127832552Y-57716266D01*
X127737314Y-57668647D01*
X127689695Y-57621028D01*
X127642076Y-57525790D01*
X127642076Y-57287695D01*
X127689695Y-57192457D01*
X127737314Y-57144838D01*
X127832552Y-57097219D01*
X128070647Y-57097219D01*
X128165885Y-57144838D01*
X128213504Y-57192457D01*
X126594457Y-58097219D02*
X126023028Y-58097219D01*
X126308742Y-57097219D02*
X126308742Y-58097219D01*
X125784933Y-58097219D02*
X125118266Y-57097219D01*
X125118266Y-58097219D02*
X125784933Y-57097219D01*
X123403980Y-57097219D02*
X123737314Y-57573409D01*
X123975409Y-57097219D02*
X123975409Y-58097219D01*
X123594457Y-58097219D01*
X123499219Y-58049600D01*
X123451600Y-58001980D01*
X123403980Y-57906742D01*
X123403980Y-57763885D01*
X123451600Y-57668647D01*
X123499219Y-57621028D01*
X123594457Y-57573409D01*
X123975409Y-57573409D01*
X123070647Y-58097219D02*
X122403980Y-57097219D01*
X122403980Y-58097219D02*
X123070647Y-57097219D01*
X120737314Y-58049600D02*
X120832552Y-58097219D01*
X120975409Y-58097219D01*
X121118266Y-58049600D01*
X121213504Y-57954361D01*
X121261123Y-57859123D01*
X121308742Y-57668647D01*
X121308742Y-57525790D01*
X121261123Y-57335314D01*
X121213504Y-57240076D01*
X121118266Y-57144838D01*
X120975409Y-57097219D01*
X120880171Y-57097219D01*
X120737314Y-57144838D01*
X120689695Y-57192457D01*
X120689695Y-57525790D01*
X120880171Y-57525790D01*
X95089695Y-88921980D02*
X95089695Y-87921980D01*
X95327790Y-87921980D01*
X95470647Y-87969600D01*
X95565885Y-88064838D01*
X95613504Y-88160076D01*
X95661123Y-88350552D01*
X95661123Y-88493409D01*
X95613504Y-88683885D01*
X95565885Y-88779123D01*
X95470647Y-88874361D01*
X95327790Y-88921980D01*
X95089695Y-88921980D01*
X96423028Y-88398171D02*
X96565885Y-88445790D01*
X96613504Y-88493409D01*
X96661123Y-88588647D01*
X96661123Y-88731504D01*
X96613504Y-88826742D01*
X96565885Y-88874361D01*
X96470647Y-88921980D01*
X96089695Y-88921980D01*
X96089695Y-87921980D01*
X96423028Y-87921980D01*
X96518266Y-87969600D01*
X96565885Y-88017219D01*
X96613504Y-88112457D01*
X96613504Y-88207695D01*
X96565885Y-88302933D01*
X96518266Y-88350552D01*
X96423028Y-88398171D01*
X96089695Y-88398171D01*
X97089695Y-87921980D02*
X97089695Y-88731504D01*
X97137314Y-88826742D01*
X97184933Y-88874361D01*
X97280171Y-88921980D01*
X97470647Y-88921980D01*
X97565885Y-88874361D01*
X97613504Y-88826742D01*
X97661123Y-88731504D01*
X97661123Y-87921980D01*
X98089695Y-88874361D02*
X98232552Y-88921980D01*
X98470647Y-88921980D01*
X98565885Y-88874361D01*
X98613504Y-88826742D01*
X98661123Y-88731504D01*
X98661123Y-88636266D01*
X98613504Y-88541028D01*
X98565885Y-88493409D01*
X98470647Y-88445790D01*
X98280171Y-88398171D01*
X98184933Y-88350552D01*
X98137314Y-88302933D01*
X98089695Y-88207695D01*
X98089695Y-88112457D01*
X98137314Y-88017219D01*
X98184933Y-87969600D01*
X98280171Y-87921980D01*
X98518266Y-87921980D01*
X98661123Y-87969600D01*
X121293504Y-89381980D02*
X120817314Y-89381980D01*
X120769695Y-89858171D01*
X120817314Y-89810552D01*
X120912552Y-89762933D01*
X121150647Y-89762933D01*
X121245885Y-89810552D01*
X121293504Y-89858171D01*
X121341123Y-89953409D01*
X121341123Y-90191504D01*
X121293504Y-90286742D01*
X121245885Y-90334361D01*
X121150647Y-90381980D01*
X120912552Y-90381980D01*
X120817314Y-90334361D01*
X120769695Y-90286742D01*
X122388742Y-89381980D02*
X122960171Y-89381980D01*
X122674457Y-90381980D02*
X122674457Y-89381980D01*
X123198266Y-89381980D02*
X123864933Y-90381980D01*
X123864933Y-89381980D02*
X123198266Y-90381980D01*
X125579219Y-90381980D02*
X125245885Y-89905790D01*
X125007790Y-90381980D02*
X125007790Y-89381980D01*
X125388742Y-89381980D01*
X125483980Y-89429600D01*
X125531600Y-89477219D01*
X125579219Y-89572457D01*
X125579219Y-89715314D01*
X125531600Y-89810552D01*
X125483980Y-89858171D01*
X125388742Y-89905790D01*
X125007790Y-89905790D01*
X125912552Y-89381980D02*
X126579219Y-90381980D01*
X126579219Y-89381980D02*
X125912552Y-90381980D01*
X128245885Y-89429600D02*
X128150647Y-89381980D01*
X128007790Y-89381980D01*
X127864933Y-89429600D01*
X127769695Y-89524838D01*
X127722076Y-89620076D01*
X127674457Y-89810552D01*
X127674457Y-89953409D01*
X127722076Y-90143885D01*
X127769695Y-90239123D01*
X127864933Y-90334361D01*
X128007790Y-90381980D01*
X128103028Y-90381980D01*
X128245885Y-90334361D01*
X128293504Y-90286742D01*
X128293504Y-89953409D01*
X128103028Y-89953409D01*
X120760171Y-87691980D02*
X120760171Y-88501504D01*
X120807790Y-88596742D01*
X120855409Y-88644361D01*
X120950647Y-88691980D01*
X121141123Y-88691980D01*
X121236361Y-88644361D01*
X121283980Y-88596742D01*
X121331600Y-88501504D01*
X121331600Y-87691980D01*
X121760171Y-88406266D02*
X122236361Y-88406266D01*
X121664933Y-88691980D02*
X121998266Y-87691980D01*
X122331600Y-88691980D01*
X123236361Y-88691980D02*
X122903028Y-88215790D01*
X122664933Y-88691980D02*
X122664933Y-87691980D01*
X123045885Y-87691980D01*
X123141123Y-87739600D01*
X123188742Y-87787219D01*
X123236361Y-87882457D01*
X123236361Y-88025314D01*
X123188742Y-88120552D01*
X123141123Y-88168171D01*
X123045885Y-88215790D01*
X122664933Y-88215790D01*
X123522076Y-87691980D02*
X124093504Y-87691980D01*
X123807790Y-88691980D02*
X123807790Y-87691980D01*
X124379219Y-87787219D02*
X124426838Y-87739600D01*
X124522076Y-87691980D01*
X124760171Y-87691980D01*
X124855409Y-87739600D01*
X124903028Y-87787219D01*
X124950647Y-87882457D01*
X124950647Y-87977695D01*
X124903028Y-88120552D01*
X124331600Y-88691980D01*
X124950647Y-88691980D01*
X98866838Y-59577219D02*
X98866838Y-58767695D01*
X98819219Y-58672457D01*
X98771600Y-58624838D01*
X98676361Y-58577219D01*
X98485885Y-58577219D01*
X98390647Y-58624838D01*
X98343028Y-58672457D01*
X98295409Y-58767695D01*
X98295409Y-59577219D01*
X97866838Y-58862933D02*
X97390647Y-58862933D01*
X97962076Y-58577219D02*
X97628742Y-59577219D01*
X97295409Y-58577219D01*
X96390647Y-58577219D02*
X96723980Y-59053409D01*
X96962076Y-58577219D02*
X96962076Y-59577219D01*
X96581123Y-59577219D01*
X96485885Y-59529600D01*
X96438266Y-59481980D01*
X96390647Y-59386742D01*
X96390647Y-59243885D01*
X96438266Y-59148647D01*
X96485885Y-59101028D01*
X96581123Y-59053409D01*
X96962076Y-59053409D01*
X96104933Y-59577219D02*
X95533504Y-59577219D01*
X95819219Y-58577219D02*
X95819219Y-59577219D01*
X103500323Y-82894514D02*
X103500323Y-83561180D01*
X103262228Y-82513561D02*
X103024133Y-83227847D01*
X103643180Y-83227847D01*
X103928895Y-82561180D02*
X104595561Y-82561180D01*
X104166990Y-83561180D01*
X104976514Y-83561180D02*
X104976514Y-82561180D01*
X105071752Y-83180228D02*
X105357466Y-83561180D01*
X105357466Y-82894514D02*
X104976514Y-83275466D01*
%TO.C,J4*%
X115038266Y-59301980D02*
X115038266Y-60016266D01*
X114990647Y-60159123D01*
X114895409Y-60254361D01*
X114752552Y-60301980D01*
X114657314Y-60301980D01*
X115943028Y-59635314D02*
X115943028Y-60301980D01*
X115704933Y-59254361D02*
X115466838Y-59968647D01*
X116085885Y-59968647D01*
%TO.C,J5*%
X115338266Y-87081980D02*
X115338266Y-87796266D01*
X115290647Y-87939123D01*
X115195409Y-88034361D01*
X115052552Y-88081980D01*
X114957314Y-88081980D01*
X116290647Y-87081980D02*
X115814457Y-87081980D01*
X115766838Y-87558171D01*
X115814457Y-87510552D01*
X115909695Y-87462933D01*
X116147790Y-87462933D01*
X116243028Y-87510552D01*
X116290647Y-87558171D01*
X116338266Y-87653409D01*
X116338266Y-87891504D01*
X116290647Y-87986742D01*
X116243028Y-88034361D01*
X116147790Y-88081980D01*
X115909695Y-88081980D01*
X115814457Y-88034361D01*
X115766838Y-87986742D01*
%TO.C,U2*%
X116133980Y-79461504D02*
X116943504Y-79461504D01*
X117038742Y-79413885D01*
X117086361Y-79366266D01*
X117133980Y-79271028D01*
X117133980Y-79080552D01*
X117086361Y-78985314D01*
X117038742Y-78937695D01*
X116943504Y-78890076D01*
X116133980Y-78890076D01*
X116229219Y-78461504D02*
X116181600Y-78413885D01*
X116133980Y-78318647D01*
X116133980Y-78080552D01*
X116181600Y-77985314D01*
X116229219Y-77937695D01*
X116324457Y-77890076D01*
X116419695Y-77890076D01*
X116562552Y-77937695D01*
X117133980Y-78509123D01*
X117133980Y-77890076D01*
%TO.C,U1*%
X116169695Y-69311980D02*
X116169695Y-70121504D01*
X116217314Y-70216742D01*
X116264933Y-70264361D01*
X116360171Y-70311980D01*
X116550647Y-70311980D01*
X116645885Y-70264361D01*
X116693504Y-70216742D01*
X116741123Y-70121504D01*
X116741123Y-69311980D01*
X117741123Y-70311980D02*
X117169695Y-70311980D01*
X117455409Y-70311980D02*
X117455409Y-69311980D01*
X117360171Y-69454838D01*
X117264933Y-69550076D01*
X117169695Y-69597695D01*
D11*
%TO.C,C9*%
X86205600Y-66028180D02*
X86205600Y-65747020D01*
X87225600Y-66028180D02*
X87225600Y-65747020D01*
%TO.C,U6*%
X102103800Y-76618800D02*
X104753800Y-76618800D01*
X101128800Y-71818800D02*
X104753800Y-71818800D01*
%TO.C,J1*%
X89210800Y-70441800D02*
X90860800Y-70441800D01*
X89210800Y-79011800D02*
X90860800Y-79011800D01*
X86240800Y-71761800D02*
X86240800Y-77691800D01*
X90860800Y-70441800D02*
X90860800Y-72291800D01*
X90860800Y-72291800D02*
X91650800Y-72291800D01*
X90860800Y-79011800D02*
X90860800Y-77161800D01*
%TO.C,C21*%
X107541600Y-79412220D02*
X107541600Y-79693380D01*
X108561600Y-79412220D02*
X108561600Y-79693380D01*
%TO.C,Q1*%
X97536000Y-80736000D02*
X98186000Y-80736000D01*
X97536000Y-80736000D02*
X95861000Y-80736000D01*
X97536000Y-83856000D02*
X98186000Y-83856000D01*
X97536000Y-83856000D02*
X96886000Y-83856000D01*
%TO.C,J4*%
X111446600Y-61569600D02*
X113246600Y-61569600D01*
X118646600Y-57299600D02*
X112716600Y-57299600D01*
X111446600Y-60119600D02*
X111446600Y-61569600D01*
X119916600Y-60119600D02*
X119916600Y-61569600D01*
X118116600Y-61569600D02*
X118116600Y-62559600D01*
X119916600Y-61569600D02*
X118116600Y-61569600D01*
%TO.C,U3*%
X94015200Y-66076400D02*
X94015200Y-64276400D01*
X90795200Y-64276400D02*
X90795200Y-66726400D01*
%TO.C,C26*%
X88542400Y-66028180D02*
X88542400Y-65747020D01*
X89562400Y-66028180D02*
X89562400Y-65747020D01*
%TO.C,C25*%
X109842180Y-82569600D02*
X109561020Y-82569600D01*
X109842180Y-83589600D02*
X109561020Y-83589600D01*
%TO.C,C22*%
X107541600Y-76391380D02*
X107541600Y-76110220D01*
X108561600Y-76391380D02*
X108561600Y-76110220D01*
%TO.C,C27*%
X113132180Y-83599600D02*
X112851020Y-83599600D01*
X113132180Y-82579600D02*
X112851020Y-82579600D01*
%TO.C,D7*%
X97346400Y-78106400D02*
X99046400Y-78106400D01*
X97346400Y-78106400D02*
X97346400Y-75556400D01*
X99046400Y-78106400D02*
X99046400Y-75556400D01*
%TO.C,C10*%
X119472180Y-72409600D02*
X119191020Y-72409600D01*
X119472180Y-73429600D02*
X119191020Y-73429600D01*
%TO.C,J5*%
X111446600Y-87389600D02*
X111446600Y-85939600D01*
X119916600Y-85939600D02*
X118116600Y-85939600D01*
X112716600Y-90209600D02*
X118646600Y-90209600D01*
X119916600Y-87389600D02*
X119916600Y-85939600D01*
X111446600Y-85939600D02*
X113246600Y-85939600D01*
X113246600Y-85939600D02*
X113246600Y-84949600D01*
%TO.C,D5*%
X96608000Y-70382000D02*
X96608000Y-72932000D01*
X94908000Y-70382000D02*
X94908000Y-72932000D01*
X96608000Y-70382000D02*
X94908000Y-70382000D01*
D10*
%TO.C,U2*%
X115036600Y-80294600D02*
X115336600Y-80294600D01*
X115036600Y-76944600D02*
X115036600Y-80294600D01*
X115036600Y-76944600D02*
X115336600Y-76944600D01*
X118161600Y-76944600D02*
X118161600Y-75719600D01*
X118386600Y-80294600D02*
X118086600Y-80294600D01*
X118386600Y-76944600D02*
X118386600Y-80294600D01*
X118386600Y-76944600D02*
X118161600Y-76944600D01*
D11*
%TO.C,R11*%
X97146342Y-79030300D02*
X97620858Y-79030300D01*
X97146342Y-80075300D02*
X97620858Y-80075300D01*
%TO.C,C23*%
X96151600Y-68300180D02*
X96151600Y-68019020D01*
X95131600Y-68300180D02*
X95131600Y-68019020D01*
%TO.C,C24*%
X98261600Y-66785180D02*
X98261600Y-66504020D01*
X97241600Y-66785180D02*
X97241600Y-66504020D01*
%TO.C,C2*%
X119601600Y-77909020D02*
X119601600Y-78190180D01*
X120621600Y-77909020D02*
X120621600Y-78190180D01*
D10*
%TO.C,U7*%
X104849800Y-70356600D02*
X101499800Y-70356600D01*
X104849800Y-70356600D02*
X104849800Y-70131600D01*
X101499800Y-67006600D02*
X101499800Y-67306600D01*
X104849800Y-67006600D02*
X101499800Y-67006600D01*
X104849800Y-67006600D02*
X104849800Y-67306600D01*
X104849800Y-70131600D02*
X106074800Y-70131600D01*
X101499800Y-70356600D02*
X101499800Y-70056600D01*
D11*
%TO.C,R12*%
X101210342Y-83529700D02*
X101684858Y-83529700D01*
X101210342Y-82484700D02*
X101684858Y-82484700D01*
%TO.C,J3*%
X99514000Y-60102400D02*
X99514000Y-61552400D01*
X105464000Y-57282400D02*
X100784000Y-57282400D01*
X106734000Y-60102400D02*
X106734000Y-61552400D01*
X99514000Y-61552400D02*
X101314000Y-61552400D01*
X106734000Y-61552400D02*
X104934000Y-61552400D01*
X104934000Y-61552400D02*
X104934000Y-62542400D01*
%TO.C,C19*%
X108723820Y-69496400D02*
X109004980Y-69496400D01*
X108723820Y-68476400D02*
X109004980Y-68476400D01*
%TO.C,D6*%
X99046400Y-71398000D02*
X97346400Y-71398000D01*
X97346400Y-71398000D02*
X97346400Y-73948000D01*
X99046400Y-71398000D02*
X99046400Y-73948000D01*
%TO.C,J2*%
X99514000Y-85970800D02*
X101314000Y-85970800D01*
X100784000Y-90240800D02*
X105464000Y-90240800D01*
X106734000Y-87420800D02*
X106734000Y-85970800D01*
X106734000Y-85970800D02*
X104934000Y-85970800D01*
X101314000Y-85970800D02*
X101314000Y-84980800D01*
X99514000Y-87420800D02*
X99514000Y-85970800D01*
%TO.C,D8*%
X86694800Y-83223400D02*
X88979800Y-83223400D01*
X88979800Y-81753400D02*
X86694800Y-81753400D01*
X86694800Y-81753400D02*
X86694800Y-83223400D01*
%TO.C,Y1*%
X112495600Y-76587600D02*
X109195600Y-76587600D01*
X109195600Y-76587600D02*
X109195600Y-80587600D01*
%TO.C,C20*%
X108736820Y-71274400D02*
X109017980Y-71274400D01*
X108736820Y-70254400D02*
X109017980Y-70254400D01*
D10*
%TO.C,U1*%
X115206600Y-71534600D02*
X118556600Y-71534600D01*
X115206600Y-68409600D02*
X113981600Y-68409600D01*
X115206600Y-68184600D02*
X115206600Y-68409600D01*
X118556600Y-71534600D02*
X118556600Y-71234600D01*
X118556600Y-68184600D02*
X118556600Y-68484600D01*
X115206600Y-68184600D02*
X118556600Y-68184600D01*
X115206600Y-71534600D02*
X115206600Y-71234600D01*
%TO.C,U8*%
X101601400Y-78814000D02*
X100376400Y-78814000D01*
X101601400Y-78589000D02*
X101601400Y-78814000D01*
X101601400Y-78589000D02*
X104951400Y-78589000D01*
X101601400Y-81939000D02*
X101601400Y-81639000D01*
X101601400Y-81939000D02*
X104951400Y-81939000D01*
X104951400Y-81939000D02*
X104951400Y-81639000D01*
X104951400Y-78589000D02*
X104951400Y-78889000D01*
D11*
%TO.C,C1*%
X119591600Y-66145180D02*
X119591600Y-65864020D01*
X118571600Y-66145180D02*
X118571600Y-65864020D01*
%TO.C,R13*%
X92071458Y-83021700D02*
X91596942Y-83021700D01*
X92071458Y-81976700D02*
X91596942Y-81976700D01*
%TD*%
M02*
