M48
; DRILL file {KiCad (6.0.1)} date Thu Jul 21 20:57:18 2022
; FORMAT={-:-/ absolute / metric / decimal}
; #@! TF.CreationDate,2022-07-21T20:57:18+08:00
; #@! TF.GenerationSoftware,Kicad,Pcbnew,(6.0.1)
; #@! TF.FileFunction,Plated,1,2,PTH
FMAT,2
METRIC
; #@! TA.AperFunction,Plated,PTH,ViaDrill
T1C0.300
; #@! TA.AperFunction,Plated,PTH,ViaDrill
T2C0.400
%
G90
G05
T1
X11.328Y17.738
X13.919Y11.489
X14.173Y5.901
X14.275Y25.408
X16.313Y6.458
X18.999Y12.607
X19.101Y8.136
X23.266Y14.893
X23.571Y9.864
X25.146Y9.864
X25.298Y14.893
X26.899Y14.817
X26.899Y9.889
X27.28Y13.572
X27.28Y12.404
X27.28Y10.93
T2
X3.983Y29.63
X6.703Y4.45
X14.156Y14.943
X28.123Y8.86
X31.933Y25.43
X35.943Y9.81
X35.983Y24.33
T0
M30
