%TF.GenerationSoftware,KiCad,Pcbnew,(6.0.1)*%
%TF.CreationDate,2022-07-21T20:57:17+08:00*%
%TF.ProjectId,USB2UART,55534232-5541-4525-942e-6b696361645f,rev?*%
%TF.SameCoordinates,Original*%
%TF.FileFunction,Legend,Top*%
%TF.FilePolarity,Positive*%
%FSLAX46Y46*%
G04 Gerber Fmt 4.6, Leading zero omitted, Abs format (unit mm)*
G04 Created by KiCad (PCBNEW (6.0.1)) date 2022-07-21 20:57:17*
%MOMM*%
%LPD*%
G01*
G04 APERTURE LIST*
%ADD10C,0.150000*%
%ADD11C,0.120000*%
G04 APERTURE END LIST*
D10*
X25468342Y19672820D02*
X24896914Y19672820D01*
X25182628Y19672820D02*
X25182628Y20672820D01*
X25087390Y20529962D01*
X24992152Y20434724D01*
X24896914Y20387105D01*
X26087390Y20672820D02*
X26182628Y20672820D01*
X26277866Y20625200D01*
X26325485Y20577581D01*
X26373104Y20482343D01*
X26420723Y20291867D01*
X26420723Y20053772D01*
X26373104Y19863296D01*
X26325485Y19768058D01*
X26277866Y19720439D01*
X26182628Y19672820D01*
X26087390Y19672820D01*
X25992152Y19720439D01*
X25944533Y19768058D01*
X25896914Y19863296D01*
X25849295Y20053772D01*
X25849295Y20291867D01*
X25896914Y20482343D01*
X25944533Y20577581D01*
X25992152Y20625200D01*
X26087390Y20672820D01*
X27277866Y20339486D02*
X27277866Y19672820D01*
X26849295Y20339486D02*
X26849295Y19815677D01*
X26896914Y19720439D01*
X26992152Y19672820D01*
X27135009Y19672820D01*
X27230247Y19720439D01*
X27277866Y19768058D01*
X25468342Y21552420D02*
X24896914Y21552420D01*
X25182628Y21552420D02*
X25182628Y22552420D01*
X25087390Y22409562D01*
X24992152Y22314324D01*
X24896914Y22266705D01*
X26087390Y22552420D02*
X26182628Y22552420D01*
X26277866Y22504800D01*
X26325485Y22457181D01*
X26373104Y22361943D01*
X26420723Y22171467D01*
X26420723Y21933372D01*
X26373104Y21742896D01*
X26325485Y21647658D01*
X26277866Y21600039D01*
X26182628Y21552420D01*
X26087390Y21552420D01*
X25992152Y21600039D01*
X25944533Y21647658D01*
X25896914Y21742896D01*
X25849295Y21933372D01*
X25849295Y22171467D01*
X25896914Y22361943D01*
X25944533Y22457181D01*
X25992152Y22504800D01*
X26087390Y22552420D01*
X27277866Y22219086D02*
X27277866Y21552420D01*
X26849295Y22219086D02*
X26849295Y21695277D01*
X26896914Y21600039D01*
X26992152Y21552420D01*
X27135009Y21552420D01*
X27230247Y21600039D01*
X27277866Y21647658D01*
X8749466Y1330000D02*
X8654228Y1377620D01*
X8511371Y1377620D01*
X8368514Y1330000D01*
X8273276Y1234762D01*
X8225657Y1139524D01*
X8178038Y949048D01*
X8178038Y806191D01*
X8225657Y615715D01*
X8273276Y520477D01*
X8368514Y425239D01*
X8511371Y377620D01*
X8606609Y377620D01*
X8749466Y425239D01*
X8797085Y472858D01*
X8797085Y806191D01*
X8606609Y806191D01*
X10463752Y1377620D02*
X9987561Y1377620D01*
X9939942Y901429D01*
X9987561Y949048D01*
X10082800Y996667D01*
X10320895Y996667D01*
X10416133Y949048D01*
X10463752Y901429D01*
X10511371Y806191D01*
X10511371Y568096D01*
X10463752Y472858D01*
X10416133Y425239D01*
X10320895Y377620D01*
X10082800Y377620D01*
X9987561Y425239D01*
X9939942Y472858D01*
X11558990Y1377620D02*
X12130419Y1377620D01*
X11844704Y377620D02*
X11844704Y1377620D01*
X12368514Y1377620D02*
X13035180Y377620D01*
X13035180Y1377620D02*
X12368514Y377620D01*
X584247Y22796972D02*
X1346152Y22796972D01*
X965200Y22416020D02*
X965200Y23177924D01*
X9034228Y12944286D02*
X9034228Y12277620D01*
X8796133Y13325239D02*
X8558038Y12610953D01*
X9177085Y12610953D01*
X9558038Y12372858D02*
X9605657Y12325239D01*
X9558038Y12277620D01*
X9510419Y12325239D01*
X9558038Y12372858D01*
X9558038Y12277620D01*
X9938990Y13277620D02*
X10605657Y13277620D01*
X10177085Y12277620D01*
X10986609Y12277620D02*
X10986609Y13277620D01*
X11081847Y12658572D02*
X11367561Y12277620D01*
X11367561Y12944286D02*
X10986609Y12563334D01*
X12618514Y33912381D02*
X12951847Y33436191D01*
X13189942Y33912381D02*
X13189942Y32912381D01*
X12808990Y32912381D01*
X12713752Y32960000D01*
X12666133Y33007620D01*
X12618514Y33102858D01*
X12618514Y33245715D01*
X12666133Y33340953D01*
X12713752Y33388572D01*
X12808990Y33436191D01*
X13189942Y33436191D01*
X12285180Y32912381D02*
X11618514Y33912381D01*
X11618514Y32912381D02*
X12285180Y33912381D01*
X10618514Y32912381D02*
X10047085Y32912381D01*
X10332800Y33912381D02*
X10332800Y32912381D01*
X9808990Y32912381D02*
X9142323Y33912381D01*
X9142323Y32912381D02*
X9808990Y33912381D01*
X7475657Y32960000D02*
X7570895Y32912381D01*
X7713752Y32912381D01*
X7856609Y32960000D01*
X7951847Y33055239D01*
X7999466Y33150477D01*
X8047085Y33340953D01*
X8047085Y33483810D01*
X7999466Y33674286D01*
X7951847Y33769524D01*
X7856609Y33864762D01*
X7713752Y33912381D01*
X7618514Y33912381D01*
X7475657Y33864762D01*
X7428038Y33817143D01*
X7428038Y33483810D01*
X7618514Y33483810D01*
X39214228Y31062381D02*
X39214228Y31871905D01*
X39166609Y31967143D01*
X39118990Y32014762D01*
X39023752Y32062381D01*
X38833276Y32062381D01*
X38738038Y32014762D01*
X38690419Y31967143D01*
X38642800Y31871905D01*
X38642800Y31062381D01*
X38214228Y31776667D02*
X37738038Y31776667D01*
X38309466Y32062381D02*
X37976133Y31062381D01*
X37642800Y32062381D01*
X36738038Y32062381D02*
X37071371Y31586191D01*
X37309466Y32062381D02*
X37309466Y31062381D01*
X36928514Y31062381D01*
X36833276Y31110000D01*
X36785657Y31157620D01*
X36738038Y31252858D01*
X36738038Y31395715D01*
X36785657Y31490953D01*
X36833276Y31538572D01*
X36928514Y31586191D01*
X37309466Y31586191D01*
X36452323Y31062381D02*
X35880895Y31062381D01*
X36166609Y32062381D02*
X36166609Y31062381D01*
X35023752Y32062381D02*
X35595180Y32062381D01*
X35309466Y32062381D02*
X35309466Y31062381D01*
X35404704Y31205239D01*
X35499942Y31300477D01*
X35595180Y31348096D01*
X5881714Y6414020D02*
X5310285Y6414020D01*
X5596000Y6414020D02*
X5596000Y7414020D01*
X5500761Y7271162D01*
X5405523Y7175924D01*
X5310285Y7128305D01*
X6310285Y6414020D02*
X6310285Y7414020D01*
X6881714Y6414020D02*
X6453142Y6985448D01*
X6881714Y7414020D02*
X6310285Y6842591D01*
X42040895Y32792381D02*
X42517085Y32792381D01*
X42564704Y33268572D01*
X42517085Y33220953D01*
X42421847Y33173334D01*
X42183752Y33173334D01*
X42088514Y33220953D01*
X42040895Y33268572D01*
X41993276Y33363810D01*
X41993276Y33601905D01*
X42040895Y33697143D01*
X42088514Y33744762D01*
X42183752Y33792381D01*
X42421847Y33792381D01*
X42517085Y33744762D01*
X42564704Y33697143D01*
X40945657Y32792381D02*
X40374228Y32792381D01*
X40659942Y33792381D02*
X40659942Y32792381D01*
X40136133Y32792381D02*
X39469466Y33792381D01*
X39469466Y32792381D02*
X40136133Y33792381D01*
X37755180Y33792381D02*
X38088514Y33316191D01*
X38326609Y33792381D02*
X38326609Y32792381D01*
X37945657Y32792381D01*
X37850419Y32840000D01*
X37802800Y32887620D01*
X37755180Y32982858D01*
X37755180Y33125715D01*
X37802800Y33220953D01*
X37850419Y33268572D01*
X37945657Y33316191D01*
X38326609Y33316191D01*
X37421847Y32792381D02*
X36755180Y33792381D01*
X36755180Y32792381D02*
X37421847Y33792381D01*
X35088514Y32840000D02*
X35183752Y32792381D01*
X35326609Y32792381D01*
X35469466Y32840000D01*
X35564704Y32935239D01*
X35612323Y33030477D01*
X35659942Y33220953D01*
X35659942Y33363810D01*
X35612323Y33554286D01*
X35564704Y33649524D01*
X35469466Y33744762D01*
X35326609Y33792381D01*
X35231371Y33792381D01*
X35088514Y33744762D01*
X35040895Y33697143D01*
X35040895Y33363810D01*
X35231371Y33363810D01*
X9440895Y1967620D02*
X9440895Y2967620D01*
X9678990Y2967620D01*
X9821847Y2920000D01*
X9917085Y2824762D01*
X9964704Y2729524D01*
X10012323Y2539048D01*
X10012323Y2396191D01*
X9964704Y2205715D01*
X9917085Y2110477D01*
X9821847Y2015239D01*
X9678990Y1967620D01*
X9440895Y1967620D01*
X10774228Y2491429D02*
X10917085Y2443810D01*
X10964704Y2396191D01*
X11012323Y2300953D01*
X11012323Y2158096D01*
X10964704Y2062858D01*
X10917085Y2015239D01*
X10821847Y1967620D01*
X10440895Y1967620D01*
X10440895Y2967620D01*
X10774228Y2967620D01*
X10869466Y2920000D01*
X10917085Y2872381D01*
X10964704Y2777143D01*
X10964704Y2681905D01*
X10917085Y2586667D01*
X10869466Y2539048D01*
X10774228Y2491429D01*
X10440895Y2491429D01*
X11440895Y2967620D02*
X11440895Y2158096D01*
X11488514Y2062858D01*
X11536133Y2015239D01*
X11631371Y1967620D01*
X11821847Y1967620D01*
X11917085Y2015239D01*
X11964704Y2062858D01*
X12012323Y2158096D01*
X12012323Y2967620D01*
X12440895Y2015239D02*
X12583752Y1967620D01*
X12821847Y1967620D01*
X12917085Y2015239D01*
X12964704Y2062858D01*
X13012323Y2158096D01*
X13012323Y2253334D01*
X12964704Y2348572D01*
X12917085Y2396191D01*
X12821847Y2443810D01*
X12631371Y2491429D01*
X12536133Y2539048D01*
X12488514Y2586667D01*
X12440895Y2681905D01*
X12440895Y2777143D01*
X12488514Y2872381D01*
X12536133Y2920000D01*
X12631371Y2967620D01*
X12869466Y2967620D01*
X13012323Y2920000D01*
X35644704Y1507620D02*
X35168514Y1507620D01*
X35120895Y1031429D01*
X35168514Y1079048D01*
X35263752Y1126667D01*
X35501847Y1126667D01*
X35597085Y1079048D01*
X35644704Y1031429D01*
X35692323Y936191D01*
X35692323Y698096D01*
X35644704Y602858D01*
X35597085Y555239D01*
X35501847Y507620D01*
X35263752Y507620D01*
X35168514Y555239D01*
X35120895Y602858D01*
X36739942Y1507620D02*
X37311371Y1507620D01*
X37025657Y507620D02*
X37025657Y1507620D01*
X37549466Y1507620D02*
X38216133Y507620D01*
X38216133Y1507620D02*
X37549466Y507620D01*
X39930419Y507620D02*
X39597085Y983810D01*
X39358990Y507620D02*
X39358990Y1507620D01*
X39739942Y1507620D01*
X39835180Y1460000D01*
X39882800Y1412381D01*
X39930419Y1317143D01*
X39930419Y1174286D01*
X39882800Y1079048D01*
X39835180Y1031429D01*
X39739942Y983810D01*
X39358990Y983810D01*
X40263752Y1507620D02*
X40930419Y507620D01*
X40930419Y1507620D02*
X40263752Y507620D01*
X42597085Y1460000D02*
X42501847Y1507620D01*
X42358990Y1507620D01*
X42216133Y1460000D01*
X42120895Y1364762D01*
X42073276Y1269524D01*
X42025657Y1079048D01*
X42025657Y936191D01*
X42073276Y745715D01*
X42120895Y650477D01*
X42216133Y555239D01*
X42358990Y507620D01*
X42454228Y507620D01*
X42597085Y555239D01*
X42644704Y602858D01*
X42644704Y936191D01*
X42454228Y936191D01*
X35111371Y3197620D02*
X35111371Y2388096D01*
X35158990Y2292858D01*
X35206609Y2245239D01*
X35301847Y2197620D01*
X35492323Y2197620D01*
X35587561Y2245239D01*
X35635180Y2292858D01*
X35682800Y2388096D01*
X35682800Y3197620D01*
X36111371Y2483334D02*
X36587561Y2483334D01*
X36016133Y2197620D02*
X36349466Y3197620D01*
X36682800Y2197620D01*
X37587561Y2197620D02*
X37254228Y2673810D01*
X37016133Y2197620D02*
X37016133Y3197620D01*
X37397085Y3197620D01*
X37492323Y3150000D01*
X37539942Y3102381D01*
X37587561Y3007143D01*
X37587561Y2864286D01*
X37539942Y2769048D01*
X37492323Y2721429D01*
X37397085Y2673810D01*
X37016133Y2673810D01*
X37873276Y3197620D02*
X38444704Y3197620D01*
X38158990Y2197620D02*
X38158990Y3197620D01*
X38730419Y3102381D02*
X38778038Y3150000D01*
X38873276Y3197620D01*
X39111371Y3197620D01*
X39206609Y3150000D01*
X39254228Y3102381D01*
X39301847Y3007143D01*
X39301847Y2911905D01*
X39254228Y2769048D01*
X38682800Y2197620D01*
X39301847Y2197620D01*
X13218038Y31312381D02*
X13218038Y32121905D01*
X13170419Y32217143D01*
X13122800Y32264762D01*
X13027561Y32312381D01*
X12837085Y32312381D01*
X12741847Y32264762D01*
X12694228Y32217143D01*
X12646609Y32121905D01*
X12646609Y31312381D01*
X12218038Y32026667D02*
X11741847Y32026667D01*
X12313276Y32312381D02*
X11979942Y31312381D01*
X11646609Y32312381D01*
X10741847Y32312381D02*
X11075180Y31836191D01*
X11313276Y32312381D02*
X11313276Y31312381D01*
X10932323Y31312381D01*
X10837085Y31360000D01*
X10789466Y31407620D01*
X10741847Y31502858D01*
X10741847Y31645715D01*
X10789466Y31740953D01*
X10837085Y31788572D01*
X10932323Y31836191D01*
X11313276Y31836191D01*
X10456133Y31312381D02*
X9884704Y31312381D01*
X10170419Y32312381D02*
X10170419Y31312381D01*
X17851523Y7995086D02*
X17851523Y7328420D01*
X17613428Y8376039D02*
X17375333Y7661753D01*
X17994380Y7661753D01*
X18280095Y8328420D02*
X18946761Y8328420D01*
X18518190Y7328420D01*
X19327714Y7328420D02*
X19327714Y8328420D01*
X19422952Y7709372D02*
X19708666Y7328420D01*
X19708666Y7995086D02*
X19327714Y7614134D01*
%TO.C,J4*%
X29389466Y31587620D02*
X29389466Y30873334D01*
X29341847Y30730477D01*
X29246609Y30635239D01*
X29103752Y30587620D01*
X29008514Y30587620D01*
X30294228Y31254286D02*
X30294228Y30587620D01*
X30056133Y31635239D02*
X29818038Y30920953D01*
X30437085Y30920953D01*
%TO.C,J5*%
X29689466Y3807620D02*
X29689466Y3093334D01*
X29641847Y2950477D01*
X29546609Y2855239D01*
X29403752Y2807620D01*
X29308514Y2807620D01*
X30641847Y3807620D02*
X30165657Y3807620D01*
X30118038Y3331429D01*
X30165657Y3379048D01*
X30260895Y3426667D01*
X30498990Y3426667D01*
X30594228Y3379048D01*
X30641847Y3331429D01*
X30689466Y3236191D01*
X30689466Y2998096D01*
X30641847Y2902858D01*
X30594228Y2855239D01*
X30498990Y2807620D01*
X30260895Y2807620D01*
X30165657Y2855239D01*
X30118038Y2902858D01*
%TO.C,U2*%
X30485180Y11428096D02*
X31294704Y11428096D01*
X31389942Y11475715D01*
X31437561Y11523334D01*
X31485180Y11618572D01*
X31485180Y11809048D01*
X31437561Y11904286D01*
X31389942Y11951905D01*
X31294704Y11999524D01*
X30485180Y11999524D01*
X30580419Y12428096D02*
X30532800Y12475715D01*
X30485180Y12570953D01*
X30485180Y12809048D01*
X30532800Y12904286D01*
X30580419Y12951905D01*
X30675657Y12999524D01*
X30770895Y12999524D01*
X30913752Y12951905D01*
X31485180Y12380477D01*
X31485180Y12999524D01*
%TO.C,U1*%
X30515180Y21158096D02*
X31324704Y21158096D01*
X31419942Y21205715D01*
X31467561Y21253334D01*
X31515180Y21348572D01*
X31515180Y21539048D01*
X31467561Y21634286D01*
X31419942Y21681905D01*
X31324704Y21729524D01*
X30515180Y21729524D01*
X31515180Y22729524D02*
X31515180Y22158096D01*
X31515180Y22443810D02*
X30515180Y22443810D01*
X30658038Y22348572D01*
X30753276Y22253334D01*
X30800895Y22158096D01*
D11*
%TO.C,C9*%
X7302800Y18619420D02*
X7302800Y18900580D01*
X8322800Y18619420D02*
X8322800Y18900580D01*
%TO.C,U6*%
X16455000Y14270800D02*
X19105000Y14270800D01*
X15480000Y19070800D02*
X19105000Y19070800D01*
%TO.C,J1*%
X3562000Y20447800D02*
X5212000Y20447800D01*
X3562000Y11877800D02*
X5212000Y11877800D01*
X592000Y19127800D02*
X592000Y13197800D01*
X5212000Y20447800D02*
X5212000Y18597800D01*
X5212000Y18597800D02*
X6002000Y18597800D01*
X5212000Y11877800D02*
X5212000Y13727800D01*
%TO.C,C21*%
X21892800Y11477380D02*
X21892800Y11196220D01*
X22912800Y11477380D02*
X22912800Y11196220D01*
%TO.C,Q1*%
X11887200Y10153600D02*
X12537200Y10153600D01*
X11887200Y10153600D02*
X10212200Y10153600D01*
X11887200Y7033600D02*
X12537200Y7033600D01*
X11887200Y7033600D02*
X11237200Y7033600D01*
%TO.C,J4*%
X25797800Y29320000D02*
X27597800Y29320000D01*
X32997800Y33590000D02*
X27067800Y33590000D01*
X25797800Y30770000D02*
X25797800Y29320000D01*
X34267800Y30770000D02*
X34267800Y29320000D01*
X32467800Y29320000D02*
X32467800Y28330000D01*
X34267800Y29320000D02*
X32467800Y29320000D01*
%TO.C,U3*%
X8366400Y24813200D02*
X8366400Y26613200D01*
X5146400Y26613200D02*
X5146400Y24163200D01*
%TO.C,C26*%
X2893600Y24861420D02*
X2893600Y25142580D01*
X3913600Y24861420D02*
X3913600Y25142580D01*
%TO.C,C25*%
X24193380Y8320000D02*
X23912220Y8320000D01*
X24193380Y7300000D02*
X23912220Y7300000D01*
%TO.C,C22*%
X21892800Y14498220D02*
X21892800Y14779380D01*
X22912800Y14498220D02*
X22912800Y14779380D01*
%TO.C,C27*%
X27483380Y7290000D02*
X27202220Y7290000D01*
X27483380Y8310000D02*
X27202220Y8310000D01*
%TO.C,D7*%
X11697600Y12783200D02*
X13397600Y12783200D01*
X11697600Y12783200D02*
X11697600Y15333200D01*
X13397600Y12783200D02*
X13397600Y15333200D01*
%TO.C,C10*%
X33952800Y21119420D02*
X33952800Y21400580D01*
X34972800Y21119420D02*
X34972800Y21400580D01*
%TO.C,J5*%
X25797800Y3500000D02*
X25797800Y4950000D01*
X34267800Y4950000D02*
X32467800Y4950000D01*
X27067800Y680000D02*
X32997800Y680000D01*
X34267800Y3500000D02*
X34267800Y4950000D01*
X25797800Y4950000D02*
X27597800Y4950000D01*
X27597800Y4950000D02*
X27597800Y5940000D01*
%TO.C,D5*%
X10959200Y20507600D02*
X10959200Y17957600D01*
X9259200Y20507600D02*
X9259200Y17957600D01*
X10959200Y20507600D02*
X9259200Y20507600D01*
D10*
%TO.C,U2*%
X29387800Y10595000D02*
X29687800Y10595000D01*
X29387800Y13945000D02*
X29387800Y10595000D01*
X29387800Y13945000D02*
X29687800Y13945000D01*
X32512800Y13945000D02*
X32512800Y15170000D01*
X32737800Y10595000D02*
X32437800Y10595000D01*
X32737800Y13945000D02*
X32737800Y10595000D01*
X32737800Y13945000D02*
X32512800Y13945000D01*
D11*
%TO.C,R11*%
X11497542Y11859300D02*
X11972058Y11859300D01*
X11497542Y10814300D02*
X11972058Y10814300D01*
%TO.C,C23*%
X32557220Y26090000D02*
X32838380Y26090000D01*
X32557220Y27110000D02*
X32838380Y27110000D01*
%TO.C,C24*%
X12612800Y24104420D02*
X12612800Y24385580D01*
X11592800Y24104420D02*
X11592800Y24385580D01*
%TO.C,C2*%
X33952800Y12980580D02*
X33952800Y12699420D01*
X34972800Y12980580D02*
X34972800Y12699420D01*
D10*
%TO.C,U7*%
X19201000Y20533000D02*
X15851000Y20533000D01*
X19201000Y20533000D02*
X19201000Y20758000D01*
X15851000Y23883000D02*
X15851000Y23583000D01*
X19201000Y23883000D02*
X15851000Y23883000D01*
X19201000Y23883000D02*
X19201000Y23583000D01*
X19201000Y20758000D02*
X20426000Y20758000D01*
X15851000Y20533000D02*
X15851000Y20833000D01*
D11*
%TO.C,R12*%
X15561542Y7359900D02*
X16036058Y7359900D01*
X15561542Y8404900D02*
X16036058Y8404900D01*
%TO.C,J3*%
X13865200Y30787200D02*
X13865200Y29337200D01*
X19815200Y33607200D02*
X15135200Y33607200D01*
X21085200Y30787200D02*
X21085200Y29337200D01*
X13865200Y29337200D02*
X15665200Y29337200D01*
X21085200Y29337200D02*
X19285200Y29337200D01*
X19285200Y29337200D02*
X19285200Y28347200D01*
%TO.C,C19*%
X23075020Y21393200D02*
X23356180Y21393200D01*
X23075020Y22413200D02*
X23356180Y22413200D01*
%TO.C,D6*%
X13397600Y19491600D02*
X11697600Y19491600D01*
X11697600Y19491600D02*
X11697600Y16941600D01*
X13397600Y19491600D02*
X13397600Y16941600D01*
%TO.C,J2*%
X13865200Y4918800D02*
X15665200Y4918800D01*
X15135200Y648800D02*
X19815200Y648800D01*
X21085200Y3468800D02*
X21085200Y4918800D01*
X21085200Y4918800D02*
X19285200Y4918800D01*
X15665200Y4918800D02*
X15665200Y5908800D01*
X13865200Y3468800D02*
X13865200Y4918800D01*
%TO.C,D8*%
X1046000Y7666200D02*
X3331000Y7666200D01*
X3331000Y9136200D02*
X1046000Y9136200D01*
X1046000Y9136200D02*
X1046000Y7666200D01*
%TO.C,Y1*%
X26846800Y14302000D02*
X23546800Y14302000D01*
X23546800Y14302000D02*
X23546800Y10302000D01*
%TO.C,C20*%
X23088020Y19615200D02*
X23369180Y19615200D01*
X23088020Y20635200D02*
X23369180Y20635200D01*
D10*
%TO.C,U1*%
X32737800Y20195000D02*
X32737800Y23545000D01*
X29612800Y20195000D02*
X29612800Y18970000D01*
X29387800Y20195000D02*
X29612800Y20195000D01*
X32737800Y23545000D02*
X32437800Y23545000D01*
X29387800Y23545000D02*
X29687800Y23545000D01*
X29387800Y20195000D02*
X29387800Y23545000D01*
X32737800Y20195000D02*
X32437800Y20195000D01*
%TO.C,U8*%
X15952600Y12075600D02*
X14727600Y12075600D01*
X15952600Y12300600D02*
X15952600Y12075600D01*
X15952600Y12300600D02*
X19302600Y12300600D01*
X15952600Y8950600D02*
X15952600Y9250600D01*
X15952600Y8950600D02*
X19302600Y8950600D01*
X19302600Y8950600D02*
X19302600Y9250600D01*
X19302600Y12300600D02*
X19302600Y12000600D01*
D11*
%TO.C,C1*%
X28302800Y24699420D02*
X28302800Y24980580D01*
X27282800Y24699420D02*
X27282800Y24980580D01*
%TO.C,R13*%
X6422658Y7867900D02*
X5948142Y7867900D01*
X6422658Y8912900D02*
X5948142Y8912900D01*
%TD*%
M02*
