%TF.GenerationSoftware,KiCad,Pcbnew,(6.0.1)*%
%TF.CreationDate,2022-07-21T20:57:18+08:00*%
%TF.ProjectId,USB2UART,55534232-5541-4525-942e-6b696361645f,rev?*%
%TF.SameCoordinates,Original*%
%TF.FileFunction,Soldermask,Top*%
%TF.FilePolarity,Negative*%
%FSLAX46Y46*%
G04 Gerber Fmt 4.6, Leading zero omitted, Abs format (unit mm)*
G04 Created by KiCad (PCBNEW (6.0.1)) date 2022-07-21 20:57:18*
%MOMM*%
%LPD*%
G01*
G04 APERTURE LIST*
G04 Aperture macros list*
%AMRoundRect*
0 Rectangle with rounded corners*
0 $1 Rounding radius*
0 $2 $3 $4 $5 $6 $7 $8 $9 X,Y pos of 4 corners*
0 Add a 4 corners polygon primitive as box body*
4,1,4,$2,$3,$4,$5,$6,$7,$8,$9,$2,$3,0*
0 Add four circle primitives for the rounded corners*
1,1,$1+$1,$2,$3*
1,1,$1+$1,$4,$5*
1,1,$1+$1,$6,$7*
1,1,$1+$1,$8,$9*
0 Add four rect primitives between the rounded corners*
20,1,$1+$1,$2,$3,$4,$5,0*
20,1,$1+$1,$4,$5,$6,$7,0*
20,1,$1+$1,$6,$7,$8,$9,0*
20,1,$1+$1,$8,$9,$2,$3,0*%
G04 Aperture macros list end*
%ADD10RoundRect,0.225000X0.250000X-0.225000X0.250000X0.225000X-0.250000X0.225000X-0.250000X-0.225000X0*%
%ADD11RoundRect,0.075000X-0.425000X-0.075000X0.425000X-0.075000X0.425000X0.075000X-0.425000X0.075000X0*%
%ADD12RoundRect,0.150000X-0.700000X0.150000X-0.700000X-0.150000X0.700000X-0.150000X0.700000X0.150000X0*%
%ADD13RoundRect,0.250000X-1.100000X0.250000X-1.100000X-0.250000X1.100000X-0.250000X1.100000X0.250000X0*%
%ADD14RoundRect,0.225000X-0.250000X0.225000X-0.250000X-0.225000X0.250000X-0.225000X0.250000X0.225000X0*%
%ADD15RoundRect,0.150000X-0.587500X-0.150000X0.587500X-0.150000X0.587500X0.150000X-0.587500X0.150000X0*%
%ADD16RoundRect,0.150000X0.150000X0.700000X-0.150000X0.700000X-0.150000X-0.700000X0.150000X-0.700000X0*%
%ADD17RoundRect,0.250000X0.250000X1.100000X-0.250000X1.100000X-0.250000X-1.100000X0.250000X-1.100000X0*%
%ADD18R,0.650000X1.560000*%
%ADD19RoundRect,0.225000X0.225000X0.250000X-0.225000X0.250000X-0.225000X-0.250000X0.225000X-0.250000X0*%
%ADD20R,0.450000X0.600000*%
%ADD21RoundRect,0.150000X-0.150000X-0.700000X0.150000X-0.700000X0.150000X0.700000X-0.150000X0.700000X0*%
%ADD22RoundRect,0.250000X-0.250000X-1.100000X0.250000X-1.100000X0.250000X1.100000X-0.250000X1.100000X0*%
%ADD23R,0.300000X1.400000*%
%ADD24RoundRect,0.200000X-0.200000X-0.275000X0.200000X-0.275000X0.200000X0.275000X-0.200000X0.275000X0*%
%ADD25RoundRect,0.225000X-0.225000X-0.250000X0.225000X-0.250000X0.225000X0.250000X-0.225000X0.250000X0*%
%ADD26R,1.400000X0.300000*%
%ADD27RoundRect,0.218750X-0.218750X-0.256250X0.218750X-0.256250X0.218750X0.256250X-0.218750X0.256250X0*%
%ADD28R,1.200000X1.400000*%
%ADD29RoundRect,0.200000X0.200000X0.275000X-0.200000X0.275000X-0.200000X-0.275000X0.200000X-0.275000X0*%
G04 APERTURE END LIST*
D10*
%TO.C,C9*%
X7812800Y17985000D03*
X7812800Y19535000D03*
%TD*%
D11*
%TO.C,U6*%
X15980000Y18525800D03*
X15980000Y17995800D03*
X15980000Y17465800D03*
X15980000Y16935800D03*
X15980000Y16405800D03*
X15980000Y15875800D03*
X15980000Y15345800D03*
X15980000Y14815800D03*
X19580000Y14815800D03*
X19580000Y15345800D03*
X19580000Y15875800D03*
X19580000Y16405800D03*
X19580000Y16935800D03*
X19580000Y17465800D03*
X19580000Y17995800D03*
X19580000Y18525800D03*
%TD*%
D12*
%TO.C,J1*%
X5152000Y18037800D03*
X5152000Y16787800D03*
X5152000Y15537800D03*
X5152000Y14287800D03*
D13*
X1952000Y12437800D03*
X1952000Y19887800D03*
%TD*%
D14*
%TO.C,C21*%
X22402800Y12111800D03*
X22402800Y10561800D03*
%TD*%
D15*
%TO.C,Q1*%
X10949700Y9543600D03*
X10949700Y7643600D03*
X12824700Y8593600D03*
%TD*%
D16*
%TO.C,J4*%
X31907800Y29180000D03*
X30657800Y29180000D03*
X29407800Y29180000D03*
X28157800Y29180000D03*
D17*
X26307800Y32380000D03*
X33757800Y32380000D03*
%TD*%
D18*
%TO.C,U3*%
X5806400Y24363200D03*
X6756400Y24363200D03*
X7706400Y24363200D03*
X7706400Y27063200D03*
X5806400Y27063200D03*
%TD*%
D10*
%TO.C,C26*%
X3403600Y24227000D03*
X3403600Y25777000D03*
%TD*%
D19*
%TO.C,C25*%
X24827800Y7810000D03*
X23277800Y7810000D03*
%TD*%
D10*
%TO.C,C22*%
X22402800Y13863800D03*
X22402800Y15413800D03*
%TD*%
D19*
%TO.C,C27*%
X28117800Y7800000D03*
X26567800Y7800000D03*
%TD*%
D20*
%TO.C,D7*%
X12547600Y13233200D03*
X12547600Y15333200D03*
%TD*%
D10*
%TO.C,C10*%
X34462800Y22035000D03*
X34462800Y20485000D03*
%TD*%
D21*
%TO.C,J5*%
X28157800Y5090000D03*
X29407800Y5090000D03*
X30657800Y5090000D03*
X31907800Y5090000D03*
D22*
X26307800Y1890000D03*
X33757800Y1890000D03*
%TD*%
D20*
%TO.C,D5*%
X10109200Y20057600D03*
X10109200Y17957600D03*
%TD*%
D23*
%TO.C,U2*%
X32062800Y14470000D03*
X31562800Y14470000D03*
X31062800Y14470000D03*
X30562800Y14470000D03*
X30062800Y14470000D03*
X30062800Y10070000D03*
X30562800Y10070000D03*
X31062800Y10070000D03*
X31562800Y10070000D03*
X32062800Y10070000D03*
%TD*%
D24*
%TO.C,R11*%
X10909800Y11336800D03*
X12559800Y11336800D03*
%TD*%
D25*
%TO.C,C23*%
X31922800Y26600000D03*
X33472800Y26600000D03*
%TD*%
D10*
%TO.C,C24*%
X12102800Y23470000D03*
X12102800Y25020000D03*
%TD*%
D14*
%TO.C,C2*%
X34462800Y13615000D03*
X34462800Y12065000D03*
%TD*%
D26*
%TO.C,U7*%
X19726000Y21208000D03*
X19726000Y21708000D03*
X19726000Y22208000D03*
X19726000Y22708000D03*
X19726000Y23208000D03*
X15326000Y23208000D03*
X15326000Y22708000D03*
X15326000Y22208000D03*
X15326000Y21708000D03*
X15326000Y21208000D03*
%TD*%
D24*
%TO.C,R12*%
X14973800Y7882400D03*
X16623800Y7882400D03*
%TD*%
D16*
%TO.C,J3*%
X18725200Y29197200D03*
X17475200Y29197200D03*
X16225200Y29197200D03*
D17*
X20575200Y32397200D03*
X14375200Y32397200D03*
%TD*%
D25*
%TO.C,C19*%
X22440600Y21903200D03*
X23990600Y21903200D03*
%TD*%
D20*
%TO.C,D6*%
X12547600Y19041600D03*
X12547600Y16941600D03*
%TD*%
D21*
%TO.C,J2*%
X16225200Y5058800D03*
X17475200Y5058800D03*
X18725200Y5058800D03*
D22*
X14375200Y1858800D03*
X20575200Y1858800D03*
%TD*%
D27*
%TO.C,D8*%
X1743500Y8401200D03*
X3318500Y8401200D03*
%TD*%
D28*
%TO.C,Y1*%
X24346800Y13402000D03*
X24346800Y11202000D03*
X26046800Y11202000D03*
X26046800Y13402000D03*
%TD*%
D25*
%TO.C,C20*%
X22453600Y20125200D03*
X24003600Y20125200D03*
%TD*%
D23*
%TO.C,U1*%
X30062800Y19670000D03*
X30562800Y19670000D03*
X31062800Y19670000D03*
X31562800Y19670000D03*
X32062800Y19670000D03*
X32062800Y24070000D03*
X31562800Y24070000D03*
X31062800Y24070000D03*
X30562800Y24070000D03*
X30062800Y24070000D03*
%TD*%
D26*
%TO.C,U8*%
X15427600Y11625600D03*
X15427600Y11125600D03*
X15427600Y10625600D03*
X15427600Y10125600D03*
X15427600Y9625600D03*
X19827600Y9625600D03*
X19827600Y10125600D03*
X19827600Y10625600D03*
X19827600Y11125600D03*
X19827600Y11625600D03*
%TD*%
D10*
%TO.C,C1*%
X27792800Y24065000D03*
X27792800Y25615000D03*
%TD*%
D29*
%TO.C,R13*%
X7010400Y8390400D03*
X5360400Y8390400D03*
%TD*%
M02*
